<svg id="svg" version="1.1" xmlns="http://www.w3.org/2000/svg" xmlns:xlink="http://www.w3.org/1999/xlink" width="400" height="400" viewBox="0, 0, 400,400"><g id="svgg"><path id="path0" d="M100.304 39.299 L 100.200 59.000 80.200 59.200 L 60.200 59.400 60.200 79.600 C 60.200 92.604,60.058 99.905,59.800 100.094 C 59.580 100.256,50.670 100.348,40.000 100.300 L 20.600 100.211 40.200 99.998 L 59.800 99.785 40.200 99.792 L 20.600 99.800 20.499 160.100 L 20.397 220.400 40.199 220.400 L 60.000 220.400 60.000 240.300 L 60.000 260.200 80.100 260.200 L 100.200 260.200 100.207 280.400 L 100.215 300.600 100.002 280.400 L 99.789 260.200 99.694 280.220 C 99.623 295.365,99.717 300.357,100.080 300.720 C 100.449 301.089,114.495 301.200,160.866 301.200 L 221.172 301.200 221.193 280.951 C 221.204 269.814,221.311 260.544,221.430 260.351 C 221.550 260.158,230.308 260.000,240.924 260.000 L 260.200 260.000 260.087 279.700 C 260.025 290.535,260.074 299.805,260.195 300.300 L 260.415 301.200 280.008 301.200 L 299.600 301.200 299.694 320.900 L 299.789 340.600 300.000 320.800 L 300.211 301.000 300.306 320.896 L 300.400 340.792 320.100 340.896 L 339.800 341.000 339.800 360.800 L 339.800 380.600 359.977 380.489 C 371.075 380.428,380.205 380.328,380.267 380.267 C 380.328 380.205,380.428 371.075,380.489 359.977 L 380.600 339.800 360.800 339.800 L 341.000 339.800 340.896 320.100 L 340.792 300.400 320.896 300.306 L 301.000 300.211 320.800 300.000 L 340.600 299.789 320.900 299.694 L 301.200 299.600 301.200 279.400 L 301.200 259.200 280.900 259.200 L 260.600 259.200 260.800 239.900 L 261.000 220.600 281.000 220.400 L 301.000 220.200 301.101 160.443 C 301.176 116.610,301.083 100.541,300.752 100.143 C 300.384 99.699,296.690 99.600,280.551 99.600 L 260.800 99.600 260.800 79.400 L 260.800 59.200 241.004 59.200 L 221.208 59.200 221.104 39.500 L 221.000 19.800 160.704 19.699 L 100.408 19.597 100.304 39.299 M99.785 39.400 C 99.785 50.180,99.837 54.533,99.900 49.072 C 99.963 43.612,99.963 34.792,99.900 29.472 C 99.837 24.153,99.785 28.620,99.785 39.400 M220.400 79.803 C 220.400 90.691,220.445 99.735,220.500 99.900 C 220.555 100.065,211.600 100.290,200.600 100.400 L 180.600 100.600 180.400 120.249 C 180.247 135.303,180.313 140.003,180.683 140.349 C 181.028 140.671,186.881 140.800,201.183 140.800 L 221.200 140.800 221.200 120.900 L 221.200 101.000 240.272 101.108 C 255.342 101.193,259.411 101.109,259.664 100.708 C 259.840 100.428,260.033 127.050,260.092 159.867 C 260.152 192.683,260.110 219.527,260.000 219.519 C 259.890 219.512,250.935 219.527,240.100 219.553 L 220.400 219.600 220.400 239.500 L 220.400 259.400 160.700 259.298 L 101.000 259.195 101.113 240.098 C 101.175 229.594,101.138 220.640,101.030 220.200 C 100.838 219.413,100.503 219.400,80.918 219.400 L 61.000 219.400 60.905 159.800 C 60.853 127.020,60.955 100.427,61.131 100.704 C 61.384 101.100,65.672 101.185,81.226 101.104 L 101.000 101.000 101.000 80.400 L 101.000 59.800 160.700 59.903 L 220.400 60.005 220.400 79.803 M190.128 99.900 C 195.808 99.962,204.988 99.962,210.528 99.900 C 216.068 99.837,211.420 99.786,200.200 99.786 C 188.980 99.786,184.448 99.837,190.128 99.900 M290.728 100.300 C 285.298 100.362,276.298 100.363,270.728 100.300 C 265.158 100.237,269.600 100.186,280.600 100.186 C 291.600 100.185,296.158 100.237,290.728 100.300 " stroke="none" fill="#fcfcfc" fill-rule="evenodd"></path><path id="path1" d="" stroke="none" fill="#100fcfc" fill-rule="evenodd"></path><path id="path2" d="" stroke="none" fill="#100fcfc" fill-rule="evenodd"></path><path id="path3" d="" stroke="none" fill="#100fcfc" fill-rule="evenodd"></path><path id="path4" d="" stroke="none" fill="#100fcfc" fill-rule="evenodd"></path></g></svg>